PathFileType	4	(X/Y/Z)	c:/Users/goper/Files/vsCode/490R/osim_files/A05/A05_Slow_03.trc
DataRate	CameraRate	NumFrames	NumMarkers	Units                	OrigDataRate	OrigDataStartFrame	OrigNumFrames
250.00	250.00	8	36	mm	250.0	1393	2785
                Frame#	Time	LPSIS			LASIS			LTH1			LTH2			LTH3			LTH4			LLFE			LMFE			LSH1			LSH2			LSH3			LSH4			LLMAL			LMMAL			LCAL			LMTP5			LTOE			LMTP1			RPSIS			RASIS			RTH1			RTH2			RTH3			RTH4			RLFE			RMFE			RSH1			RSH2			RSH3			RSH4			RLMAL			RMMAL			RCAL			RMTP1			RTOE			RMTP5		
		X1	Y1	Z1	X2	Y2	Z2	X3	Y3	Z3	X4	Y4	Z4	X5	Y5	Z5	X6	Y6	Z6	X7	Y7	Z7	X8	Y8	Z8	X9	Y9	Z9	X10	Y10	Z10	X11	Y11	Z11	X12	Y12	Z12	X13	Y13	Z13	X14	Y14	Z14	X15	Y15	Z15	X16	Y16	Z16	X17	Y17	Z17	X18	Y18	Z18	X19	Y19	Z19	X20	Y20	Z20	X21	Y21	Z21	X22	Y22	Z22	X23	Y23	Z23	X24	Y24	Z24	X25	Y25	Z25	X26	Y26	Z26	X27	Y27	Z27	X28	Y28	Z28	X29	Y29	Z29	X30	Y30	Z30	X31	Y31	Z31	X32	Y32	Z32	X33	Y33	Z33	X34	Y34	Z34	X35	Y35	Z35	X36	Y36	Z36

1393	5.56800	-610.67401	1020.40179	335.38605	-798.78436	952.81622	443.20123	-632.07159	687.04279	466.99829	-641.84937	646.27222	466.01163	-692.55646	691.18420	487.93820	-692.06921	648.75671	482.43283	-689.19452	472.27280	450.16077	-695.57428	474.32095	350.73050	-645.65472	379.76288	453.47202	-639.87805	335.55576	453.48486	-702.65302	365.93347	453.10803	-691.67212	324.36356	446.31674	-637.59863	112.58969	435.77921	-634.51355	117.05895	345.16327	-554.50067	64.37868	385.43411	-766.90790	45.71770	454.94556	-816.00378	68.85390	393.43399	-772.08368	61.64501	347.69043	-614.97668	1023.56812	254.00874	-799.09998	988.49084	149.95618	-883.59467	641.53693	58.45090	-904.92950	606.17438	66.87331	-933.61829	669.12299	85.37721	-942.83496	626.08142	80.71281	-890.42273	560.34863	73.42902	-916.70624	534.87396	209.83441	-827.44861	310.29022	66.43063	-821.37433	263.61392	75.45977	-887.26514	296.88446	74.22666	-871.51117	250.47485	78.08692	-811.78058	150.78358	90.32481	-865.22766	170.34731	176.01508	-758.78052	106.51160	169.18076	-968.69043	79.39869	157.06871	-996.29480	90.19575	102.43489	-928.41425	69.09214	46.57269
1394	5.57200	-613.58112	1020.44391	335.25775	-801.55023	952.54620	443.26303	-634.05151	687.27655	466.83838	-643.68475	646.47058	465.94229	-694.40955	691.20544	487.96164	-693.85846	648.82275	482.46140	-690.56720	472.28674	450.15021	-696.89075	474.33881	350.75586	-646.70135	379.98346	453.43262	-640.64337	335.78702	453.43973	-703.61133	365.80017	453.17447	-692.46057	324.38132	446.37329	-637.76050	112.66202	435.79095	-634.55951	117.00451	345.45642	-554.62799	64.50394	385.47739	-766.95496	45.69270	454.94775	-816.04626	68.74384	393.40546	-772.13263	61.57867	347.69366	-617.62805	1023.62848	253.94453	-802.06726	988.14557	149.95203	-886.03326	640.98724	58.73826	-907.55688	605.60010	67.25324	-936.00232	668.64551	85.71522	-945.31232	625.76508	81.11192	-893.09113	559.70612	73.81479	-919.99274	534.57446	210.29015	-834.71021	308.34662	66.95834	-830.05273	261.30991	75.94085	-895.18213	295.98431	74.39128	-880.36096	249.22563	78.23164	-823.02338	148.26282	90.64976	-876.28448	168.65433	176.18781	-771.32220	102.86731	169.80429	-981.70160	80.04132	156.45401	-1008.69458	91.43121	101.60783	-940.96191	69.02128	46.26440
1395	5.57600	-616.48718	1020.43195	335.13593	-804.25781	952.35980	443.30597	-634.74438	686.12225	467.32562	-645.45673	646.65277	465.88730	-694.78333	691.54254	488.80518	-695.65833	648.85535	482.47244	-691.80945	472.31012	450.16617	-698.34076	474.30240	350.74268	-647.53668	380.19592	453.41776	-641.62329	335.91782	453.42014	-704.49463	366.21341	453.19339	-693.25214	324.41699	446.42462	-637.93683	112.71799	435.83295	-634.74396	117.10152	345.45297	-554.72113	64.65129	385.48611	-766.98572	45.64645	454.94824	-816.12854	68.65138	393.40347	-772.73743	61.65247	347.95190	-621.82703	1023.26935	253.63071	-803.47083	986.82074	150.19458	-888.42548	640.31598	59.08118	-909.98706	604.99158	67.56773	-938.35651	668.14142	86.02048	-947.75067	625.16699	81.43655	-895.66187	558.95013	74.19093	-923.29474	534.32385	210.74046	-842.15063	306.27216	67.45805	-838.65497	259.10910	76.43205	-902.97784	295.26083	74.52214	-889.17474	248.02036	78.38486	-834.21667	145.83572	91.02902	-887.74677	167.05225	176.15204	-783.96948	99.27809	170.33989	-994.61993	80.75385	155.78279	-1021.03119	92.87755	100.77632	-953.41742	69.15372	45.83868
1396	5.58000	-619.46783	1020.48505	334.97760	-806.94525	952.32745	443.34982	-637.28607	686.82410	466.88144	-647.26282	646.83295	465.81470	-697.32709	691.45154	488.32541	-697.56250	648.83917	482.42300	-693.18280	472.36292	450.17776	-699.68134	474.33698	350.79346	-648.66943	380.34918	453.37286	-642.46613	336.11652	453.39542	-705.53375	365.99680	453.22479	-694.20850	324.49960	446.46310	-638.09003	112.77898	435.86292	-635.11298	117.28658	345.13104	-554.76501	64.82420	385.51779	-767.02545	45.63047	454.95111	-816.19000	68.54043	393.37836	-772.81348	61.62882	347.92688	-624.79346	1023.24158	253.48314	-808.11804	987.30664	149.89587	-890.76251	639.55988	59.42619	-912.29291	604.31683	67.86890	-940.61072	667.53699	86.26067	-950.12384	624.41125	81.74023	-898.19885	558.15619	74.59488	-926.43170	533.99585	211.13954	-849.75531	304.18604	68.06879	-847.30444	256.89801	76.97819	-910.72211	294.52924	74.66531	-897.96759	247.02011	78.57761	-845.52020	143.57191	91.43040	-898.80811	165.97531	176.35564	-796.63269	95.88151	170.88683	-1007.54193	81.76176	155.01598	-1033.36804	94.53261	99.93434	-966.02118	69.40307	45.36992
1397	5.58400	-622.37628	1020.55847	334.77902	-809.63098	952.27802	443.28040	-639.29749	687.15656	466.69394	-649.09705	647.07379	465.72391	-699.22888	691.50452	488.28784	-699.34595	648.89606	482.40015	-694.38672	472.40878	450.18149	-701.14697	474.35349	350.81906	-649.52228	380.59195	453.28925	-643.20996	336.40359	453.34103	-706.34894	366.09818	453.15179	-694.97522	324.56433	446.42355	-638.20502	112.91262	435.85657	-635.23322	117.41280	345.13916	-554.80731	65.04105	385.53720	-767.03296	45.59420	454.95679	-816.24713	68.47150	393.34247	-772.85077	61.60218	347.91830	-627.77832	1023.20148	253.32007	-811.06140	986.82617	149.87746	-892.95770	638.76129	59.79653	-914.52374	603.49365	68.18997	-942.72668	666.84991	86.53531	-952.36096	623.60211	82.04618	-900.55066	557.31573	75.01180	-929.44897	533.69269	211.63844	-857.63910	301.94061	68.59267	-855.91309	254.76355	77.42780	-918.43066	293.81781	74.87284	-906.81653	246.07892	78.80079	-856.99835	141.70074	91.61857	-910.08179	164.81552	176.45082	-809.62048	93.03326	171.37129	-1020.38971	82.93266	154.43184	-1045.57996	96.39105	99.14745	-978.45978	69.89364	44.90572
1398	5.58800	-625.24536	1020.59027	334.61737	-812.40979	952.17145	443.15997	-641.43994	687.58893	466.44397	-650.98718	647.28760	465.61469	-701.25623	691.50623	488.22665	-701.13672	648.96381	482.40250	-695.73755	472.47101	450.15134	-702.58521	474.34280	350.79370	-650.65796	380.81558	453.35248	-644.18475	336.61465	453.29434	-707.43256	366.12589	453.23517	-695.75604	324.65012	446.43405	-638.34045	113.03632	435.88669	-635.43451	117.56018	345.16736	-554.85071	65.24842	385.56665	-767.04938	45.59573	454.93640	-816.29431	68.35342	393.29568	-772.93719	61.56814	347.91187	-630.80896	1023.18353	253.13199	-812.48334	985.40063	150.00490	-894.97986	637.89581	60.18666	-916.54437	602.65228	68.61179	-944.81683	665.98792	86.80941	-954.42004	622.75751	82.40663	-902.84454	556.40857	75.39474	-932.43201	533.42609	212.15224	-865.02832	299.98843	69.13769	-864.43488	252.76367	78.00105	-925.95837	293.20755	74.96465	-915.48578	245.17874	79.00629	-868.24628	139.64821	92.02424	-921.09644	163.81386	176.50783	-822.28754	89.86927	171.96988	-1033.17627	84.31754	153.75687	-1057.76672	98.28784	98.38423	-990.88159	70.59114	44.51343
1399	5.59200	-628.21893	1020.68713	334.37503	-815.32941	952.13635	442.93649	-643.52228	687.78491	466.31845	-652.86737	647.50641	465.53793	-703.25684	691.54449	488.14383	-703.09729	649.01373	482.32660	-697.00330	472.52600	450.16354	-703.96350	474.34491	350.76462	-651.58203	381.01462	453.12845	-645.02216	336.81097	453.25845	-708.32770	366.22025	453.08853	-696.72919	324.71701	446.45694	-638.47382	113.18930	435.92365	-635.61774	117.71513	345.19397	-554.82239	65.56534	385.63910	-767.07098	45.57616	454.93750	-816.39032	68.29533	393.26862	-772.99500	61.53403	347.87344	-633.80408	1023.21515	252.94778	-817.44965	986.10919	149.25334	-896.88873	636.93451	60.62360	-918.55682	601.75189	69.00777	-946.78949	665.08716	86.94064	-956.47168	621.93829	82.61113	-905.01221	555.43372	75.81107	-935.30408	533.10809	212.65193	-872.46613	298.03250	69.69746	-873.02002	250.76230	78.46294	-934.19452	292.66742	75.10585	-924.13733	244.43254	79.11627	-879.36053	137.73990	92.45925	-932.27942	162.87018	176.59303	-835.00000	86.83689	172.51802	-1045.88513	85.81528	153.15904	-1069.88293	100.52847	97.67362	-1003.18878	71.33588	44.15503
1400	5.59600	-631.20483	1020.75244	334.13901	-818.19189	951.91730	442.63129	-645.58173	688.10803	466.15222	-654.67487	647.75787	465.36371	-705.21594	691.61768	488.08548	-704.97626	649.04669	482.21185	-698.45038	472.59576	450.09024	-705.42188	474.35651	350.77805	-652.45221	381.62305	452.78961	-645.89801	337.08398	453.20135	-709.21509	366.90170	452.78473	-697.60736	324.80728	446.43658	-638.60229	113.35773	435.94690	-635.72754	117.93869	345.21494	-554.97803	65.67804	385.61234	-767.13226	45.53624	454.94678	-816.44635	68.18819	393.23935	-773.06549	61.51092	347.86835	-636.82819	1023.21136	252.74263	-820.28888	985.45166	149.45537	-898.80005	635.87103	61.02444	-920.43335	600.70367	69.37463	-948.77698	664.11871	87.12141	-958.44531	620.81946	82.86011	-907.11694	554.42285	76.22440	-938.02521	532.63593	213.06284	-879.88940	296.16165	70.33189	-881.47144	248.95802	78.97727	-941.71545	292.20255	75.37705	-932.72253	243.71182	79.30570	-890.26501	136.00432	92.98994	-943.24304	162.23134	176.77975	-847.81110	84.05679	173.05267	-1058.53247	87.54757	152.55452	-1081.82727	102.86648	96.91982	-1015.56097	72.39366	43.75748
